<?xml version="1.0" encoding="utf-8"?>
<!-- Generator: Adobe Illustrator 18.0.0, SVG Export Plug-In . SVG Version: 6.00 Build 0)  -->
<!DOCTYPE svg PUBLIC "-//W3C//DTD SVG 1.1//EN" "http://www.w3.org/Graphics/SVG/1.1/DTD/svg11.dtd">
<svg version="1.1" xmlns="http://www.w3.org/2000/svg" xmlns:xlink="http://www.w3.org/1999/xlink" x="0px" y="0px"
	 viewBox="0 0 2272 1872" enable-background="new 0 0 2272 1872" xml:space="preserve">
<g id="Background">
	<rect x="-16.7" y="-19.1" fill="#BFE3D3" width="2310.7" height="1904.9"/>
</g>
<g id="Object">
	<g>
		<path fill="#493843" d="M1368.2,628.2c49.6,0,89.7-46.7,89.7-104.2c0-55.1-36.8-100.1-83.4-103.9c-10.9-49.2-53.6-86-104.7-86
			c-2.2,0-4.4,0.2-6.5,0.3c-23.2-45.4-70.8-76.6-125.9-76.6c-77.9,0-141.1,62.3-141.1,139.2c0,3.9,0.3,7.7,0.6,11.5
			c-9.6-3.7-19.9-5.8-30.6-5.8c-53.7,0-97.2,50.5-97.2,112.8c0,58.4,38.3,106.5,87.3,112.2v0.6h169.9v64.3H916.2v23h233.2v-87.3
			h32.6v185.2h233.2v-23H1205V628.2H1368.2z"/>
		<circle fill="#00B6BE" cx="916.2" cy="704" r="47"/>
		<circle fill="#00B6BE" cx="1045.7" cy="704" r="47"/>
		<circle fill="#00B6BE" cx="1285.7" cy="801.9" r="47"/>
		<circle fill="#00B6BE" cx="1415.2" cy="801.9" r="47"/>
	</g>
	<g>
		<rect x="281.9" y="799.5" fill="#493843" width="157.4" height="28.8"/>
		<rect x="306.8" y="715.3" fill="#493843" width="28.8" height="103.2"/>
		<rect x="385" y="715.3" fill="#493843" width="28.8" height="103.2"/>
		<polygon fill="#493843" points="602.4,476.1 602.4,359 118.7,359 118.7,725.6 468,725.6 468,476.1 		"/>
		<polygon fill="#493843" points="602.4,476.1 468,476.1 468,725.6 468,817.7 713.7,817.7 713.7,476.1 		"/>
		<rect x="516.5" y="533.2" fill="#F04E5C" width="148.7" height="40.3"/>
		<rect x="524.4" y="597.2" fill="#F04E5C" width="132.9" height="30.2"/>
		<rect x="524.4" y="656.2" fill="#F04E5C" width="132.9" height="30.2"/>
		<rect x="524.4" y="715.3" fill="#F04E5C" width="132.9" height="30.2"/>
		<rect x="566.9" y="762.8" fill="#F04E5C" width="48" height="21.6"/>
		<rect x="118.7" y="627.4" fill="#F04E5C" width="349.3" height="98.1"/>
		<g>
			<rect x="186.9" y="419.4" fill="#F04E5C" width="361.3" height="56.6"/>
			<rect x="186.9" y="504.9" fill="#F04E5C" width="106.5" height="18.2"/>
			<rect x="331.8" y="504.9" fill="#F04E5C" width="106.5" height="18.2"/>
			<rect x="186.9" y="544.2" fill="#F04E5C" width="106.5" height="18.2"/>
			<rect x="331.8" y="544.2" fill="#F04E5C" width="106.5" height="18.2"/>
			<rect x="186.9" y="583.5" fill="#F04E5C" width="106.5" height="18.2"/>
			<rect x="331.8" y="583.5" fill="#F04E5C" width="106.5" height="18.2"/>
		</g>
	</g>
	<g>
		<circle fill="#F04E5C" cx="1163.5" cy="1379.5" r="195.8"/>
		<path fill="#493843" d="M1428.4,1379.5c0-75.3-31.6-143.2-82.2-191.5l0.2-0.2l-7.3-6.5c-1-0.9-2.2-1.7-3.2-2.6
			c-4.6-4-9.3-7.9-14.2-11.5c-1.5-1.1-2.9-2.1-4.4-3.1c-5-3.6-10.2-7.1-15.5-10.3c-1.1-0.7-2.3-1.4-3.5-2.1
			c-5.7-3.4-11.5-6.6-17.5-9.5c-0.7-0.3-1.4-0.7-2.1-1.1c-6.5-3.1-13.1-6-19.9-8.6c-0.7-0.3-1.5-0.6-2.2-0.9
			c-6.7-2.5-13.6-4.8-20.6-6.8c-0.8-0.2-1.6-0.5-2.4-0.7c-6.9-1.9-14-3.5-21.1-4.9c-0.9-0.2-1.7-0.3-2.6-0.5
			c-7.1-1.3-14.3-2.3-21.6-3c-0.8-0.1-1.6-0.1-2.4-0.2c-7.5-0.6-15-1-22.6-1c-7.6,0-15.1,0.4-22.6,1c-0.8,0.1-1.6,0.1-2.4,0.2
			c-7.3,0.7-14.5,1.7-21.6,3c-0.8,0.1-1.7,0.3-2.5,0.4c-7.2,1.3-14.2,3-21.2,4.9c-0.8,0.2-1.5,0.4-2.3,0.6c-7,2-13.9,4.3-20.7,6.8
			c-0.7,0.3-1.4,0.5-2,0.8c-6.8,2.6-13.5,5.5-20.1,8.7c-0.6,0.3-1.2,0.6-1.9,1c-6.1,3-12.1,6.3-17.9,9.7c-1,0.6-2,1.2-3,1.8
			c-5.5,3.3-10.7,6.9-15.9,10.6c-1.4,1-2.8,1.9-4.1,2.9c-5,3.7-9.8,7.7-14.5,11.7c-1,0.8-2.1,1.6-3,2.4l-7.3,6.5l0.2,0.2
			c-50.6,48.3-82.2,116.2-82.2,191.5c0,75.8,32.1,144.3,83.3,192.6l-0.2,0.2l7.4,6.5c0.7,0.7,1.6,1.2,2.3,1.9
			c4.9,4.2,9.9,8.2,15.1,12.1c1.2,0.9,2.4,1.7,3.6,2.5c5.5,3.9,11.2,7.7,17,11.2c0.7,0.4,1.4,0.8,2.1,1.2
			c13,7.7,26.6,14.2,40.8,19.6c0.2,0.1,0.4,0.1,0.5,0.2c7,2.6,14.2,5,21.5,7c0.5,0.1,1,0.3,1.5,0.4c7,1.9,14.2,3.6,21.5,4.9
			c0.7,0.1,1.5,0.3,2.2,0.4c7.1,1.3,14.3,2.3,21.6,2.9c0.8,0.1,1.6,0.1,2.4,0.2c7.4,0.6,14.8,1,22.3,1s15-0.4,22.3-1
			c0.8-0.1,1.6-0.1,2.4-0.2c7.3-0.7,14.5-1.7,21.6-2.9c0.7-0.1,1.5-0.3,2.2-0.4c7.3-1.3,14.4-3,21.5-4.9c0.5-0.1,1-0.3,1.5-0.4
			c7.3-2,14.5-4.4,21.5-7c0.2-0.1,0.4-0.1,0.5-0.2c14.2-5.4,27.9-12,40.8-19.6c0.7-0.4,1.4-0.8,2.1-1.2c5.8-3.5,11.5-7.3,17-11.2
			c1.2-0.8,2.4-1.7,3.6-2.5c5.2-3.8,10.2-7.9,15.1-12.1c0.8-0.6,1.6-1.2,2.3-1.9l7.4-6.5l-0.2-0.2
			C1396.3,1523.8,1428.4,1455.4,1428.4,1379.5z M1282.6,1596.5c-2.3,1.3-4.6,2.3-6.9,3.5c-4.3,2.2-8.6,4.4-13.1,6.3
			c-3,1.3-6.1,2.5-9.2,3.7c-3.9,1.5-7.9,3-11.9,4.4c-3.3,1.1-6.6,2.1-10,3.1c-3.2,0.9-6.4,1.7-9.7,2.5c19.8-17.7,36.9-44.2,50-77.1
			c16.5,8.1,32.2,17.8,46.7,29.5C1307.4,1581.3,1295.4,1589.5,1282.6,1596.5z M1085.5,1614.4c-4-1.3-8-2.8-11.9-4.4
			c-3.1-1.2-6.1-2.4-9.2-3.7c-4.5-2-8.8-4.1-13.1-6.3c-2.3-1.2-4.7-2.2-6.9-3.5c-12.7-7-24.8-15.2-36-24.3
			c14.5-11.7,30.2-21.4,46.7-29.5c13.1,32.9,30.2,59.4,50,77.1c-3.2-0.8-6.5-1.6-9.7-2.5C1092.2,1616.4,1088.8,1615.5,1085.5,1614.4
			z M1025.1,1174.4c0.3-0.2,0.7-0.4,1.1-0.7c5.9-3.9,11.9-7.6,18.1-11c2.1-1.2,4.3-2.2,6.4-3.3c4.5-2.3,9.1-4.6,13.7-6.6
			c2.8-1.2,5.6-2.3,8.5-3.4c4.2-1.6,8.4-3.2,12.6-4.6c3.1-1,6.3-2,9.5-2.9c3.4-1,6.8-1.8,10.2-2.6c-20.2,18-37.5,45.2-50.7,78.9
			c-16.8-8.3-32.7-18.2-47.4-30.2C1012.8,1183.1,1018.9,1178.6,1025.1,1174.4z M1241.6,1144.7c4.3,1.4,8.5,3,12.7,4.7
			c2.8,1.1,5.6,2.2,8.4,3.4c4.7,2.1,9.4,4.4,13.9,6.7c2.1,1.1,4.1,2,6.2,3.1c6.4,3.5,12.6,7.3,18.6,11.3c0.2,0.1,0.4,0.2,0.5,0.3
			c6.3,4.2,12.3,8.8,18.1,13.6c-14.7,12-30.6,22-47.4,30.2c-13.2-33.8-30.6-60.9-50.7-78.9c3.4,0.8,6.9,1.7,10.2,2.6
			C1235.3,1142.7,1238.5,1143.7,1241.6,1144.7z M1172.2,1517.9c28.8,1,56.9,7,83.3,17.6c-20.4,51.1-50.2,85.7-83.3,90.9V1517.9z
			 M1172.2,1500.7v-112.5h110.7c-0.8,48.1-8.7,93.3-21.4,131.1C1233.2,1508,1203,1501.7,1172.2,1500.7z M1172.2,1370.9v-110.3
			c31.1-1,61.5-7.4,89.9-18.8c12.4,37.4,20,81.9,20.8,129.2H1172.2z M1172.2,1243.3v-110.6c33.5,5.2,63.7,40.6,84.1,92.7
			C1229.6,1236.2,1201.3,1242.3,1172.2,1243.3z M1154.9,1132.7v110.6c-29.1-1-57.5-7.1-84.1-17.9
			C1091.2,1173.3,1121.4,1138,1154.9,1132.7z M1154.9,1260.6v110.3h-110.7c0.8-47.3,8.4-91.7,20.8-129.2
			C1093.4,1253.2,1123.8,1259.6,1154.9,1260.6z M1154.9,1388.2v112.5c-30.8,1-61,7.3-89.3,18.6c-12.8-37.8-20.6-82.9-21.4-131.1
			H1154.9z M1154.9,1517.9v108.5c-33.1-5.2-63-39.7-83.3-90.9C1098,1524.9,1126.1,1518.9,1154.9,1517.9z M1278,1526.3
			c13.4-39.6,21.4-86.8,22.2-138.1h110.5c-2.4,68.1-32.3,129.2-79.1,172.6C1315,1547.2,1297.1,1535.5,1278,1526.3z M1410.7,1370.9
			h-110.5c-0.8-50.6-8.6-97.1-21.6-136.3c19.4-9.4,37.5-21.3,54.3-35.2C1378.9,1242.7,1408.3,1303.4,1410.7,1370.9z M994.2,1199.4
			c16.8,14,34.9,25.9,54.3,35.2c-13,39.2-20.8,85.7-21.6,136.3H916.4C918.7,1303.4,948.1,1242.7,994.2,1199.4z M916.4,1388.2h110.5
			c0.8,51.4,8.8,98.6,22.2,138.1c-19.1,9.2-37,20.8-53.6,34.5C948.7,1517.4,918.8,1456.3,916.4,1388.2z"/>
		<circle fill="#00B6BE" cx="1273.5" cy="1227.6" r="38.8"/>
		<circle fill="#00B6BE" cx="1048.4" cy="1533.6" r="38.8"/>
	</g>
	<g>
		<path fill="#493843" d="M762.4,1369.7c0-55.1-36.8-100.1-83.4-103.9c-10.9-49.2-53.6-86-104.7-86c-2.2,0-4.4,0.2-6.5,0.3
			c-23.2-45.4-70.8-76.6-125.9-76.6c-77.9,0-141.1,62.3-141.1,139.2c0,3.9,0.3,7.7,0.6,11.5c-9.6-3.7-19.9-5.8-30.6-5.8
			c-53.7,0-97.2,50.5-97.2,112.8c0,58.4,38.3,106.5,87.3,112.2h421.1C727.2,1467.9,762.4,1423.6,762.4,1369.7z"/>
		<circle fill="#00B6BE" cx="468" cy="1476.5" r="51.8"/>
		<path fill="#00B6BE" d="M667.6,1515.4v-77.7h-58.2c-3.3-11.9-7.9-23.2-13.9-33.7l41.1-41.1l-55-55l-41.1,41.1
			c-10.5-6-21.8-10.7-33.7-13.9v-58.1h-77.7v58.1c-11.9,3.3-23.2,7.9-33.7,13.9l-41.1-41.1l-55,55l41.1,41.1
			c-6,10.5-10.7,21.8-13.9,33.7h-58.1v77.7h58.1c3.3,11.9,7.9,23.2,13.9,33.7l-41.1,41.1l55,55l41.1-41.1
			c10.5,6,21.8,10.7,33.7,13.9v58.1h77.7V1618c11.9-3.3,23.2-7.9,33.7-13.9l41.1,41.1l55-55l-41.1-41.1c6-10.5,10.7-21.8,13.9-33.7
			H667.6z M468,1570.1c-51.7,0-93.6-41.9-93.6-93.6c0-51.7,41.9-93.6,93.6-93.6s93.6,41.9,93.6,93.6
			C561.6,1528.2,519.7,1570.1,468,1570.1z"/>
	</g>
	<g>
		<polygon fill="#493843" points="2140.8,1169.2 2140.8,1503.2 1572.7,1503.2 1572.7,1123.1 1739.7,1123.1 1774.2,1169.7 		"/>
		<rect x="1635.1" y="1208.5" fill="#F04E5C" width="443.4" height="351.2"/>
		<polygon fill="#00B6BE" points="1572.7,1274.8 1572.7,1608.7 2140.8,1608.7 2140.8,1228.7 1776.1,1228.7 1741.6,1275.2 		"/>
		<polygon fill="#493843" points="1991.1,1290.1 1991.1,1091.5 1947.9,1091.5 1904.7,1091.5 1904.7,1290.1 1816.4,1290.1 
			1947.9,1431.2 2079.4,1290.1 		"/>
	</g>
	<g>
		<g>
			<polygon fill="#493843" points="1920.1,790.8 1909.6,818.7 1862.5,818.7 1815.4,818.7 1804.9,790.8 1577.5,790.8 1577.5,822.5 
				1613.9,856.1 1862.5,856.1 2111,856.1 2147.5,822.5 2147.5,790.8 			"/>
			<g>
				<path fill="#493843" d="M2110.1,846h-495.2V468.9h495.2V846z M1637.9,823h449.1V491.9h-449.1V823z"/>
			</g>
			<rect x="1666.7" y="515.9" fill="#F04E5C" width="391.5" height="244.2"/>
			<g>
				<g>
					<polygon fill="#493843" points="1796.3,707.3 1784.8,707.3 1784.8,565.3 1680.2,565.3 1680.2,553.8 1796.3,553.8 					"/>
				</g>
				<g>
					<rect x="1822.2" y="383.9" fill="#493843" width="11.5" height="323.4"/>
				</g>
				<g>
					<polygon fill="#493843" points="1868.3,707.3 1856.7,707.3 1856.7,407.9 2067.9,407.9 2067.9,419.4 1868.3,419.4 					"/>
				</g>
				<g>
					<rect x="1896.1" y="439.6" fill="#493843" width="11.5" height="267.7"/>
				</g>
				<g>
					<polygon fill="#493843" points="1944.1,707.3 1932.5,707.3 1932.5,589.3 1985.3,589.3 1985.3,600.8 1944.1,600.8 					"/>
				</g>
				<g>
					<polygon fill="#493843" points="1907.6,383.9 1896.1,383.9 1896.1,356.1 1629.3,356.1 1629.3,344.6 1907.6,344.6 					"/>
				</g>
				<g>
					<polygon fill="#493843" points="1833.7,331.2 1822.2,331.2 1822.2,290.8 2106.3,290.8 2106.3,302.4 1833.7,302.4 					"/>
				</g>
			</g>
			<circle fill="#F04E5C" cx="2067.9" cy="413.7" r="38.4"/>
		</g>
		<rect x="1784.8" y="724.4" fill="#493843" width="11.5" height="21.6"/>
		<rect x="1822.2" y="724.4" fill="#493843" width="11.5" height="21.6"/>
		<rect x="1856.7" y="724.4" fill="#493843" width="11.5" height="21.6"/>
		<rect x="1896.1" y="724.4" fill="#493843" width="11.5" height="21.6"/>
		<rect x="1932.5" y="724.4" fill="#493843" width="11.5" height="21.6"/>
	</g>
</g>
</svg>
